Simulation
nRows=35
nColumns=15
endheader
time  TH_x TH_y TH_z SC_y  SC_z  SC_x  AC_y  AC_z  AC_x  GH_y  GH_z  GH_yy  EL_x  PS_y
8.045112781954886  0.000000  0.000000  0.000000  -22.11626539320533  7.770603309944482  14.828616517105402  55.94308206288276  15.855705704502974  8.07639376900041  43.3573098330725  51.78626776174451  -62.20628661498643  78.31641031272684  120.000000
8.085338345864661  0.000000  0.000000  0.000000  -21.818116275413214  7.704492170660046  14.558197117150561  55.95138966283383  15.592711163119061  7.7254215541346225  43.79135217256658  51.83588724252407  -61.81355152080502  75.1281094363546  120.000000
8.125563909774437  0.000000  0.000000  0.000000  -21.517525866337774  7.632864832926802  14.280926478149349  55.96760205551851  15.317676976853608  7.375897699984295  44.22046556326276  51.87504185641928  -61.3555594152651  71.91156423112798  120.000000
8.16578947368421  0.000000  0.000000  0.000000  -21.217879610528648  7.555887973268279  14.000319332253579  55.991747715837725  15.032632211489009  7.031499590555344  44.644345150895596  51.90431857409622  -60.83637491845691  68.70028578839593  120.000000
8.206015037593986  0.000000  0.000000  0.000000  -20.922268589995966  7.473683365572344  13.71985024061653  56.024244366768144  14.73975288674272  6.695573043424532  45.06301477020345  51.924562809684815  -60.26045258054171  65.52753484262459  120.000000
8.246240601503759  0.000000  0.000000  0.000000  -20.63361841544592  7.386383273070904  13.442845930511833  56.06598346334576  14.441288627827886  6.371132101798021  45.476929867599836  51.93668699150705  -59.63243668597674  62.426626365785864  120.000000
8.286466165413534  0.000000  0.000000  0.000000  -20.354682625733314  7.294034524403403  13.172472597442392  56.11819255364319  14.139676752236763  6.060817573747175  45.886700980426795  51.94144403821536  -58.95711268052765  59.431358389093965  120.000000
8.326691729323308  0.000000  0.000000  0.000000  -20.088044396987236  7.196604888470884  12.91171751223996  56.182225350050096  13.837672301499627  5.76684875508743  46.29266714536195  51.939153578319285  -58.239451793521305  56.57614081582413  120.000000
8.366917293233083  0.000000  0.000000  0.000000  -19.835922240134863  7.093914290224098  12.663227059883523  56.259288105387306  13.538439010986991  5.49092465683983  46.6944342173228  51.92942558288925  -57.4848071414542  53.8953229201427  120.000000
8.407142857142857  0.000000  0.000000  0.000000  -19.599988971594225  6.985748302785208  12.429031309867566  56.35008366629655  13.245448782165628  5.234212985495175  47.090669808030675  51.911112079234215  -56.699538512773785  51.42069295222822  120.000000
8.447368421052632  0.000000  0.000000  0.000000  -19.38141676446448  6.8722327747373795  12.21035013195124  56.454458253080304  12.962225384385324  4.9975091204555735  47.47913516752841  51.8825824648836  -55.89180246388196  49.17700401137163  120.000000
8.487593984962405  0.000000  0.000000  0.000000  -19.180977563987387  6.754127463214795  12.007536360627915  56.57114060366716  12.692044125961655  4.781343226875331  47.8568410233992  51.8421698830935  -55.07222014237025  47.177641116580965  120.000000
8.52781954887218  0.000000  0.000000  0.000000  -18.999044606940775  6.632897235852294  11.82005543577512  56.697603242000376  12.4376817682419  4.585910997006124  48.22014883127517  51.78836997850729  -54.25413364902454  45.42344478681321  120.000000
8.568045112781954  0.000000  0.000000  0.000000  -18.835521955332275  6.510572370429803  11.646491120916243  56.83007570434241  12.201328798777135  4.410937455518  48.564710213240566  51.71967647038389  -53.453240702262335  43.90517478518976  120.000000
8.60827067669173  0.000000  0.000000  0.000000  -18.689756350965375  6.389462065591569  11.484624980821513  56.96373154351214  11.98472963865484  4.255631140326305  48.885357066781935  51.634367032843706  -52.686920166530584  42.60735700744262  120.000000
8.648496240601503  0.000000  0.000000  0.000000  -18.560507168864742  6.271897596913003  11.331627571546175  57.09293330712969  11.789470422562472  4.11879062840535  49.17598409089164  51.53039651911813  -51.97356018277888  41.51159633111282  120.000000
8.688721804511278  0.000000  0.000000  0.000000  -18.44603661168856  6.16011860264076  11.184309942186033  57.2114685820518  11.617270232620005  3.9989423558121473  49.42950376201246  51.40540353373784  -51.332067594378465  40.59881117526718  120.000000
8.728947368421052  0.000000  0.000000  0.000000  -18.344211472237475  6.0561780248546935  11.039302166082049  57.31280653836829  11.47016419572047  3.8944714266109193  49.637941826970895  51.256782237856314  -50.78162128777458  39.850343545691494  120.000000
8.769172932330827  0.000000  0.000000  0.000000  -18.252684108135707  5.961932579967667  10.893110058132418  57.390267915391156  11.350486073704449  3.8037493210543  49.79287350087086  51.08181685445943  -50.34170712828045  39.248126594120166  120.000000
8.8093984962406  0.000000  0.000000  0.000000  -18.169366218684335  5.8791828505770365  10.742145881644007  57.43719645454166  11.260670040656583  3.7252276335620906  49.88605014673428  50.87780691544845  -50.03219277411728  38.77433573505108  120.000000
8.849624060150376  0.000000  0.000000  0.000000  -18.092996900130384  5.809752285110551  10.582745554173563  57.447149927315124  11.202957009837045  3.6574303765979623  49.91001956302915  50.64220484576257  -49.873194314050934  38.410963611188386  120.000000
8.889849624060151  0.000000  0.000000  0.000000  -18.023551533331283  5.755503775838359  10.411225355840562  57.41411210021894  11.179096520025208  3.5989391651165876  49.858699025434255  50.37272047943426  -49.8843158558423  38.13962755140088  120.000000
8.930075187969924  0.000000  0.000000  0.000000  -17.962428609913673  5.71838485281215  10.224111652240236  57.33283853825448  11.190004239488632  3.548497185368893  49.727775255430146  50.06730555019195  -50.082645269833634  37.94201737185328  120.000000
8.9703007518797  0.000000  0.000000  0.000000  -17.91218937358207  5.700203803617245  10.018478737777368  57.19940801405203  11.23558413990733  3.505057988470208  49.51486067590145  49.72397842873066  -50.479420263370585  37.80137216703973  120.000000
9.010526315789473  0.000000  0.000000  0.000000  -17.87572099277186  5.702355783064756  9.79220566759137  57.01183381325329  11.314565094039388  3.467968963648026  49.21943255930167  49.34048245058233  -51.075920757011225  37.704612090974294  120.000000
9.050751879699249  0.000000  0.000000  0.000000  -17.855305876918752  5.725625841196748  9.544107352921495  56.77075574136669  11.424255486569423  3.4372406356564107  48.842980977212775  48.91400411456306  -51.86053246987434  37.64389707563875  120.000000
9.090977443609022  0.000000  0.000000  0.000000  -17.851983315648653  5.769591510631139  9.273868490831191  56.479854738569685  11.56057897937847  3.413463770696978  48.388824906094705  48.441125030082425  -52.807917703207124  37.617048578255634  120.000000
9.131203007518797  0.000000  0.000000  0.000000  -17.865702892576834  5.832648859603379  8.982015657981263  56.14538882137602  11.718407936890873  3.3974445547564347  47.86118495645797  47.91779424748543  -53.879903298056306  37.62663827838784  120.000000
9.17142857142857  0.000000  0.000000  0.000000  -17.89618764072724  5.912324302164508  8.670241995388437  55.77566528598655  11.89216894677089  3.3894332003076224  47.264028106666544  47.33911623319383  -55.027570909884204  37.67839458402074  120.000000
9.211654135338346  0.000000  0.000000  0.000000  -17.94303705819492  6.004452762182175  8.341525342461978  55.380756935965245  12.076306334494245  3.3881162841096057  46.600744470653666  46.69930294645029  -56.194402792549944  37.780056319193655  120.000000
9.25187969924812  0.000000  0.000000  0.000000  -18.00514228388901  6.102899975835008  7.999722742182529  54.97199304222559  12.265064835310927  3.3904916808008396  45.875131092371184  45.99198969019209  -57.32029772984957  37.939422613328254  120.000000
9.292105263157895  0.000000  0.000000  0.000000  -18.080815646531292  6.200504016152998  7.649019050302138  54.561425213182716  12.452248147283845  3.392575885072878  45.091942797945876  45.21028591617832  -58.34418464684983  38.16298081320215  120.000000
9.332330827067668  0.000000  0.000000  0.000000  -18.1685655429575  6.289843667739629  7.293423010075938  54.16144761273289  12.631558737844877  3.3897687483001016  44.25665714575971  44.34678989125784  -59.20451455708568  38.45714616509247  120.000000
9.372556390977444  0.000000  0.000000  0.000000  -18.267279219636464  6.363634252878927  6.93659349209305  53.78451811885216  12.796873699275105  3.3771965492176474  43.37537312353713  43.39401864375528  -59.83943760849895  38.82906553605535  120.000000
9.412781954887217  0.000000  0.000000  0.000000  -18.375418046397307  6.4150894698533785  6.58165670598919  53.44263133967882  12.942211238388163  3.350405253199898  42.45460804461354  42.345028861787235  -60.18742738166821  39.28622379943224  120.000000
